{"asset":{"version":"2.0","generator":"Blockbench 4.12.5 glTF exporter"},"scenes":[{"nodes":[1,3,5,7],"name":"blockbench_export"}],"scene":0,"nodes":[{"name":"head"},{"name":"head","mesh":0,"children":[0],"skin":0},{"name":"body"},{"name":"body","mesh":1,"children":[2],"skin":1},{"name":"left_arm"},{"name":"left_arm","mesh":2,"children":[4],"skin":2},{"name":"right_arm"},{"translation":[0.375,0,0],"name":"right_arm","mesh":3,"children":[6],"skin":3}],"bufferViews":[{"buffer":0,"byteOffset":0,"byteLength":288,"target":34962,"byteStride":12},{"buffer":0,"byteOffset":288,"byteLength":288,"target":34962,"byteStride":12},{"buffer":0,"byteOffset":576,"byteLength":192,"target":34962,"byteStride":8},{"buffer":0,"byteOffset":768,"byteLength":192,"target":34962,"byteStride":8},{"buffer":0,"byteOffset":960,"byteLength":384,"target":34962,"byteStride":16},{"buffer":0,"byteOffset":1344,"byteLength":72,"target":34963},{"buffer":0,"byteOffset":1416,"byteLength":288,"target":34962,"byteStride":12},{"buffer":0,"byteOffset":1704,"byteLength":288,"target":34962,"byteStride":12},{"buffer":0,"byteOffset":1992,"byteLength":192,"target":34962,"byteStride":8},{"buffer":0,"byteOffset":2184,"byteLength":192,"target":34962,"byteStride":8},{"buffer":0,"byteOffset":2376,"byteLength":384,"target":34962,"byteStride":16},{"buffer":0,"byteOffset":2760,"byteLength":72,"target":34963},{"buffer":0,"byteOffset":2832,"byteLength":288,"target":34962,"byteStride":12},{"buffer":0,"byteOffset":3120,"byteLength":288,"target":34962,"byteStride":12},{"buffer":0,"byteOffset":3408,"byteLength":192,"target":34962,"byteStride":8},{"buffer":0,"byteOffset":3600,"byteLength":192,"target":34962,"byteStride":8},{"buffer":0,"byteOffset":3792,"byteLength":384,"target":34962,"byteStride":16},{"buffer":0,"byteOffset":4176,"byteLength":72,"target":34963},{"buffer":0,"byteOffset":4248,"byteLength":288,"target":34962,"byteStride":12},{"buffer":0,"byteOffset":4536,"byteLength":288,"target":34962,"byteStride":12},{"buffer":0,"byteOffset":4824,"byteLength":192,"target":34962,"byteStride":8},{"buffer":0,"byteOffset":5016,"byteLength":192,"target":34962,"byteStride":8},{"buffer":0,"byteOffset":5208,"byteLength":384,"target":34962,"byteStride":16},{"buffer":0,"byteOffset":5592,"byteLength":72,"target":34963},{"buffer":0,"byteOffset":5664,"byteLength":64},{"buffer":0,"byteOffset":5728,"byteLength":64},{"buffer":0,"byteOffset":5792,"byteLength":64},{"buffer":0,"byteOffset":5856,"byteLength":64}],"buffers":[{"byteLength":5920,"uri":"data:application/octet-stream;base64,"}],"accessors":[{"bufferView":0,"componentType":5126,"count":24,"max":[0.0625,0.6875,0.0625],"min":[-0.0625,0.5625,-0.0625],"type":"VEC3"},{"bufferView":1,"componentType":5126,"count":24,"max":[1,1,1],"min":[-1,-1,-1],"type":"VEC3"},{"bufferView":2,"componentType":5126,"count":24,"max":[0.0625,0.0625],"min":[0,0],"type":"VEC2"},{"bufferView":3,"componentType":5123,"count":24,"max":[0,0,0,0],"min":[0,0,0,0],"type":"VEC4"},{"bufferView":4,"componentType":5126,"count":24,"max":[0,1,0,0],"min":[0,1,0,0],"type":"VEC4"},{"bufferView":5,"componentType":5123,"count":36,"max":[23],"min":[0],"type":"SCALAR"},{"bufferView":6,"componentType":5126,"count":24,"max":[0.125,0.5,0.125],"min":[-0.125,0,-0.125],"type":"VEC3"},{"bufferView":7,"componentType":5126,"count":24,"max":[1,1,1],"min":[-1,-1,-1],"type":"VEC3"},{"bufferView":8,"componentType":5126,"count":24,"max":[0.125,0.25],"min":[0,0],"type":"VEC2"},{"bufferView":9,"componentType":5123,"count":24,"max":[0,0,0,0],"min":[0,0,0,0],"type":"VEC4"},{"bufferView":10,"componentType":5126,"count":24,"max":[0,1,0,0],"min":[0,1,0,0],"type":"VEC4"},{"bufferView":11,"componentType":5123,"count":36,"max":[23],"min":[0],"type":"SCALAR"},{"bufferView":12,"componentType":5126,"count":24,"max":[-0.125,0.4375,0.0625],"min":[-0.25,0.125,-0.0625],"type":"VEC3"},{"bufferView":13,"componentType":5126,"count":24,"max":[1,1,1],"min":[-1,-1,-1],"type":"VEC3"},{"bufferView":14,"componentType":5126,"count":24,"max":[0.0625,0.15625],"min":[0,0],"type":"VEC2"},{"bufferView":15,"componentType":5123,"count":24,"max":[0,0,0,0],"min":[0,0,0,0],"type":"VEC4"},{"bufferView":16,"componentType":5126,"count":24,"max":[0,1,0,0],"min":[0,1,0,0],"type":"VEC4"},{"bufferView":17,"componentType":5123,"count":36,"max":[23],"min":[0],"type":"SCALAR"},{"bufferView":18,"componentType":5126,"count":24,"max":[-0.125,0.4375,0.0625],"min":[-0.25,0.125,-0.0625],"type":"VEC3"},{"bufferView":19,"componentType":5126,"count":24,"max":[1,1,1],"min":[-1,-1,-1],"type":"VEC3"},{"bufferView":20,"componentType":5126,"count":24,"max":[0.0625,0.15625],"min":[0,0],"type":"VEC2"},{"bufferView":21,"componentType":5123,"count":24,"max":[0,0,0,0],"min":[0,0,0,0],"type":"VEC4"},{"bufferView":22,"componentType":5126,"count":24,"max":[0,1,0,0],"min":[0,1,0,0],"type":"VEC4"},{"bufferView":23,"componentType":5123,"count":36,"max":[23],"min":[0],"type":"SCALAR"},{"bufferView":24,"componentType":5126,"count":1,"max":[1,0,0,0,0,1,0,0,0,0,1,0,0,0,0,1],"min":[1,0,0,0,0,1,0,0,0,0,1,0,0,0,0,1],"type":"MAT4"},{"bufferView":25,"componentType":5126,"count":1,"max":[1,0,0,0,0,1,0,0,0,0,1,0,0,0,0,1],"min":[1,0,0,0,0,1,0,0,0,0,1,0,0,0,0,1],"type":"MAT4"},{"bufferView":26,"componentType":5126,"count":1,"max":[1,0,0,0,0,1,0,0,0,0,1,0,0,0,0,1],"min":[1,0,0,0,0,1,0,0,0,0,1,0,0,0,0,1],"type":"MAT4"},{"bufferView":27,"componentType":5126,"count":1,"max":[1,0,0,0,0,1,0,0,0,0,1,0,0,0,0,1],"min":[1,0,0,0,0,1,0,0,0,0,1,0,0,0,0,1],"type":"MAT4"}],"materials":[{"pbrMetallicRoughness":{"metallicFactor":0,"roughnessFactor":1},"alphaMode":"MASK","alphaCutoff":0.05,"doubleSided":true},{"pbrMetallicRoughness":{"metallicFactor":0,"roughnessFactor":1},"alphaMode":"MASK","alphaCutoff":0.05,"doubleSided":true},{"pbrMetallicRoughness":{"metallicFactor":0,"roughnessFactor":1},"alphaMode":"MASK","alphaCutoff":0.05,"doubleSided":true}],"meshes":[{"primitives":[{"mode":4,"attributes":{"POSITION":0,"NORMAL":1,"TEXCOORD_0":2,"JOINTS_0":3,"WEIGHTS_0":4},"indices":5,"material":0}]},{"primitives":[{"mode":4,"attributes":{"POSITION":6,"NORMAL":7,"TEXCOORD_0":8,"JOINTS_0":9,"WEIGHTS_0":10},"indices":11,"material":1}]},{"primitives":[{"mode":4,"attributes":{"POSITION":12,"NORMAL":13,"TEXCOORD_0":14,"JOINTS_0":15,"WEIGHTS_0":16},"indices":17,"material":2}]},{"primitives":[{"mode":4,"attributes":{"POSITION":18,"NORMAL":19,"TEXCOORD_0":20,"JOINTS_0":21,"WEIGHTS_0":22},"indices":23,"material":2}]}],"skins":[{"inverseBindMatrices":24,"joints":[0],"skeleton":0},{"inverseBindMatrices":25,"joints":[2],"skeleton":2},{"inverseBindMatrices":26,"joints":[4],"skeleton":4},{"inverseBindMatrices":27,"joints":[6],"skeleton":6}]}